<svg width="49" height="49" viewBox="0 0 49 49" fill="none" xmlns="http://www.w3.org/2000/svg">
<path d="M22.9033 6.94336C23.448 5.52604 25.4071 5.48159 26.04 6.81055L26.0967 6.94336C26.9725 9.22179 29.755 10.0311 31.709 8.63867L31.8955 8.49707C33.0758 7.54207 34.7948 8.483 34.6787 9.9502L34.6621 10.0938C34.2812 12.5049 36.2854 14.5971 38.6738 14.3682L38.9062 14.3379C40.406 14.101 41.4243 15.7766 40.5898 16.9893L40.5029 17.1045C38.9676 19.0022 39.6579 21.8166 41.8408 22.8125L42.0566 22.9033C43.474 23.448 43.5184 25.4071 42.1895 26.04L42.0566 26.0967C39.7782 26.9725 38.9689 29.755 40.3613 31.709L40.5029 31.8955C41.4579 33.0758 40.517 34.7948 39.0498 34.6787L38.9062 34.6621C36.4951 34.2812 34.4029 36.2854 34.6318 38.6738L34.6621 38.9062C34.899 40.406 33.2234 41.4243 32.0107 40.5898L31.8955 40.5029C29.9978 38.9676 27.1834 39.6579 26.1875 41.8408L26.0967 42.0566C25.552 43.474 23.5929 43.5184 22.96 42.1895L22.9033 42.0566C22.0275 39.7782 19.245 38.9689 17.291 40.3613L17.1045 40.5029C15.9242 41.4579 14.2052 40.517 14.3213 39.0498L14.3379 38.9062C14.7188 36.4951 12.7146 34.4029 10.3262 34.6318L10.0938 34.6621C8.59397 34.899 7.57567 33.2234 8.41016 32.0107L8.49707 31.8955C10.0324 29.9978 9.34207 27.1834 7.15918 26.1875L6.94336 26.0967C5.52604 25.552 5.48159 23.5929 6.81055 22.96L6.94336 22.9033C9.22179 22.0275 10.0311 19.245 8.63867 17.291L8.49707 17.1045C7.54207 15.9242 8.483 14.2052 9.9502 14.3213L10.0938 14.3379C12.5049 14.7188 14.5971 12.7146 14.3682 10.3262L14.3379 10.0938C14.101 8.59397 15.7766 7.57567 16.9893 8.41016L17.1045 8.49707C19.0022 10.0324 21.8166 9.34207 22.8125 7.15918L22.9033 6.94336Z" stroke="#5956E9" stroke-width="2"/>
<circle cx="24.5" cy="24.5" r="11.5" stroke="#5956E9" stroke-width="2"/>
</svg>
