<svg width="18" height="19" viewBox="0 0 18 19" fill="none" xmlns="http://www.w3.org/2000/svg">
<path d="M4.08352 18.0974H0.450708V6.41772H4.08352V18.0974ZM2.24758 4.85522C1.11477 4.85522 0.177271 3.87866 0.177271 2.70679C0.177271 1.57397 1.11477 0.636475 2.24758 0.636475C3.41946 0.636475 4.35696 1.57397 4.35696 2.70679C4.35696 3.87866 3.41946 4.85522 2.24758 4.85522ZM17.6382 18.0974H14.0445V12.4333C14.0445 11.0662 14.0054 9.34741 12.1304 9.34741C10.2554 9.34741 9.98196 10.7927 9.98196 12.3162V18.0974H6.34915V6.41772H9.82571V8.01929H9.86477C10.3726 7.12085 11.5445 6.14429 13.3023 6.14429C16.9741 6.14429 17.6773 8.56616 17.6773 11.6912V18.0974H17.6382Z" fill="white"/>
</svg>
