<svg width="24" height="24" viewBox="0 0 24 24" fill="none" xmlns="http://www.w3.org/2000/svg">
<path d="M16.7342 2.52091C18.0385 2.52466 19.2882 3.02525 20.2104 3.91334C21.1327 4.80144 21.6525 6.00488 21.6564 7.26083V16.7397C21.6525 17.9956 21.1327 19.199 20.2104 20.0871C19.2882 20.9752 18.0385 21.4758 16.7342 21.4796H6.8908C5.58654 21.4758 4.33682 20.9752 3.41456 20.0871C2.49231 19.199 1.97247 17.9956 1.96857 16.7397V7.26083C1.97247 6.00488 2.49231 4.80144 3.41456 3.91334C4.33682 3.02525 5.58654 2.52466 6.8908 2.52091H16.7342ZM16.7342 0.625244H6.8908C3.10078 0.625244 0 3.61118 0 7.26083V16.7397C0 20.3893 3.10078 23.3752 6.8908 23.3752H16.7342C20.5242 23.3752 23.625 20.3893 23.625 16.7397V7.26083C23.625 3.61118 20.5242 0.625244 16.7342 0.625244Z" fill="#D5D5D5"/>
<path d="M18.2108 7.26099C17.9187 7.26099 17.6332 7.1776 17.3904 7.02136C17.1476 6.86512 16.9584 6.64305 16.8466 6.38324C16.7348 6.12343 16.7056 5.83753 16.7626 5.56172C16.8195 5.2859 16.9602 5.03255 17.1667 4.83369C17.3732 4.63484 17.6363 4.49942 17.9227 4.44456C18.2091 4.38969 18.506 4.41785 18.7758 4.52547C19.0456 4.63309 19.2762 4.81533 19.4385 5.04916C19.6007 5.28299 19.6873 5.55789 19.6873 5.83911C19.6877 6.02595 19.6498 6.21102 19.5758 6.38371C19.5017 6.55641 19.393 6.71331 19.2558 6.84543C19.1186 6.97754 18.9556 7.08226 18.7763 7.15357C18.597 7.22488 18.4048 7.26139 18.2108 7.26099ZM11.8125 8.20857C12.5913 8.20857 13.3526 8.43095 14.0002 8.84761C14.6477 9.26426 15.1524 9.85646 15.4504 10.5493C15.7485 11.2422 15.8264 12.0046 15.6745 12.7402C15.5226 13.4757 15.1476 14.1513 14.5969 14.6816C14.0462 15.2119 13.3445 15.5731 12.5807 15.7194C11.8169 15.8657 11.0251 15.7906 10.3056 15.5036C9.5861 15.2166 8.97112 14.7306 8.53844 14.107C8.10577 13.4835 7.87483 12.7504 7.87483 12.0004C7.87594 10.9951 8.29116 10.0312 9.02938 9.32036C9.76759 8.60948 10.7685 8.20964 11.8125 8.20857ZM11.8125 6.3129C10.6444 6.3129 9.50244 6.64647 8.53117 7.27142C7.55989 7.89637 6.80287 8.78463 6.35584 9.82389C5.90881 10.8631 5.79185 12.0067 6.01974 13.11C6.24763 14.2132 6.81015 15.2267 7.63615 16.0221C8.46216 16.8175 9.51455 17.3592 10.6602 17.5786C11.8059 17.7981 12.9935 17.6854 14.0727 17.255C15.1519 16.8245 16.0744 16.0955 16.7234 15.1602C17.3724 14.2249 17.7187 13.1253 17.7187 12.0004C17.7187 10.492 17.0965 9.04534 15.9888 7.97873C14.8812 6.91212 13.3789 6.3129 11.8125 6.3129Z" fill="#D5D5D5"/>
</svg>
