<svg width="25" height="24" viewBox="0 0 25 24" fill="none" xmlns="http://www.w3.org/2000/svg">
<path d="M12.5652 0.000244141C5.93691 0.000244141 0.5625 5.37226 0.5625 11.9976C0.5625 16.909 3.5203 21.1295 7.74803 22.988C7.71588 22.1524 7.74267 21.1455 7.95701 20.235C8.18742 19.2602 9.50021 13.6954 9.50021 13.6954C9.50021 13.6954 9.11441 12.9295 9.11441 11.7994C9.11441 10.0212 10.1432 8.69295 11.4292 8.69295C12.5223 8.69295 13.0474 9.51241 13.0474 10.4925C13.0474 11.5905 12.3455 13.2294 11.9865 14.7505C11.6864 16.0252 12.6241 17.0589 13.8833 17.0589C16.1553 17.0589 17.6878 14.1399 17.6878 10.68C17.6878 8.05023 15.9141 6.0846 12.6938 6.0846C9.05547 6.0846 6.78353 8.80007 6.78353 11.8315C6.78353 12.8759 7.09431 13.6151 7.57657 14.1828C7.79626 14.4452 7.82841 14.5524 7.74803 14.8523C7.68909 15.0719 7.56049 15.6021 7.50155 15.8164C7.42117 16.1216 7.17469 16.2288 6.90141 16.1163C5.22426 15.4307 4.44194 13.599 4.44194 11.5316C4.44194 8.12522 7.31936 4.03863 13.0206 4.03863C17.602 4.03863 20.6188 7.35396 20.6188 10.9103C20.6188 15.6182 17.9985 19.1317 14.1405 19.1317C12.8438 19.1317 11.6275 18.4301 11.2095 17.6374C11.2095 17.6374 10.5129 20.401 10.3629 20.9366C10.1111 21.8632 9.61273 22.7844 9.15728 23.5075C10.2621 23.8333 11.4079 23.9992 12.5598 24.0002C19.1881 24.0002 24.5625 18.6282 24.5625 12.0029C24.5625 5.37762 19.1934 0.000244141 12.5652 0.000244141Z" fill="#D4D4D4"/>
</svg>
