<svg width="36" height="34" viewBox="0 0 36 34" fill="none" xmlns="http://www.w3.org/2000/svg">
<path d="M29.7345 31.329L34.6927 2.76994C34.8268 1.99771 34.0607 1.37844 33.3337 1.67134L1.98107 14.3035C1.19454 14.6204 1.13464 15.7109 1.88172 16.1121L10.7101 20.8525C10.9649 20.9893 11.148 21.2296 11.2121 21.5116L12.976 29.2607C13.1406 29.9837 14.007 30.2824 14.5822 29.8145L19.3726 25.9172C19.7385 25.6195 20.2627 25.618 20.6303 25.9135L28.1227 31.9373C28.7163 32.4146 29.6043 32.0795 29.7345 31.329Z" stroke="#5956E9" stroke-width="2"/>
<path d="M26.3208 8.02535L9.3178 19.0187C9.12982 19.1402 9.04553 19.3719 9.11145 19.5858L12.212 29.6472C12.2767 29.8569 12.4705 30 12.6899 30H13.0884C13.3557 30 13.5757 29.7899 13.5879 29.5229L13.9718 21.1513C13.9778 21.0211 14.0343 20.8984 14.1294 20.8093L26.9342 8.81008C27.3789 8.39329 26.8326 7.69441 26.3208 8.02535Z" fill="#5956E9"/>
</svg>
