<svg width="143" height="59" viewBox="0 0 143 59" fill="none" xmlns="http://www.w3.org/2000/svg">
<rect x="4.5" y="0.000244141" width="134" height="51" rx="25.5" fill="#6966FF"/>
<mask id="mask0_0_43" style="mask-type:alpha" maskUnits="userSpaceOnUse" x="4" y="0" width="135" height="52">
<rect x="5" y="0.500244" width="133" height="50" rx="25" fill="#6966FF" stroke="black"/>
</mask>
<g mask="url(#mask0_0_43)">
<ellipse cx="21.3214" cy="53.4288" rx="42.8214" ry="42.4286" fill="#5956E9"/>
<ellipse cx="96.75" cy="58.8574" rx="41.25" ry="40.8571" fill="#38D4FF" style="mix-blend-mode:multiply"/>
<ellipse cx="117.107" cy="-8.14261" rx="41.25" ry="40.8571" fill="#E541ED"/>
<path d="M37.796 31.0002V18.3102H43.718C45.146 18.3102 46.226 18.6582 46.958 19.3542C47.702 20.0382 48.074 20.9802 48.074 22.1802C48.074 23.3682 47.702 24.3162 46.958 25.0242C46.226 25.7202 45.146 26.0682 43.718 26.0682H40.604V31.0002H37.796ZM40.604 23.8902H43.358C44.03 23.8902 44.528 23.7402 44.852 23.4402C45.188 23.1402 45.356 22.7202 45.356 22.1802C45.356 21.6402 45.188 21.2262 44.852 20.9382C44.528 20.6382 44.03 20.4882 43.358 20.4882H40.604V23.8902ZM53.6079 31.1982C52.6359 31.1982 51.7899 31.0062 51.0699 30.6222C50.3619 30.2262 49.8099 29.6742 49.4139 28.9662C49.0299 28.2582 48.8379 27.4122 48.8379 26.4282C48.8379 25.4562 49.0299 24.6162 49.4139 23.9082C49.8099 23.2002 50.3619 22.6542 51.0699 22.2702C51.7899 21.8862 52.6359 21.6942 53.6079 21.6942C54.5799 21.6942 55.4259 21.8862 56.1459 22.2702C56.8659 22.6542 57.4179 23.2002 57.8019 23.9082C58.1979 24.6162 58.3959 25.4562 58.3959 26.4282C58.3959 27.4122 58.1979 28.2582 57.8019 28.9662C57.4179 29.6742 56.8659 30.2262 56.1459 30.6222C55.4259 31.0062 54.5799 31.1982 53.6079 31.1982ZM53.6079 29.1462C54.2319 29.1462 54.7239 28.9242 55.0839 28.4802C55.4559 28.0362 55.6419 27.3522 55.6419 26.4282C55.6419 25.5042 55.4559 24.8262 55.0839 24.3942C54.7239 23.9622 54.2319 23.7462 53.6079 23.7462C52.9839 23.7462 52.4859 23.9622 52.1139 24.3942C51.7539 24.8262 51.5739 25.5042 51.5739 26.4282C51.5739 27.3522 51.7539 28.0362 52.1139 28.4802C52.4859 28.9242 52.9839 29.1462 53.6079 29.1462ZM60.1512 34.8882V24.2502C60.1512 23.8662 60.1392 23.4762 60.1152 23.0802C60.0912 22.6722 60.0552 22.2702 60.0072 21.8742H62.6172L62.8332 23.6562H62.6352C62.8152 23.0562 63.1932 22.5822 63.7692 22.2342C64.3452 21.8742 65.0052 21.6942 65.7492 21.6942C66.5412 21.6942 67.2372 21.8862 67.8372 22.2702C68.4372 22.6422 68.9052 23.1822 69.2412 23.8902C69.5892 24.5982 69.7632 25.4442 69.7632 26.4282C69.7632 27.4242 69.5892 28.2762 69.2412 28.9842C68.9052 29.6922 68.4372 30.2382 67.8372 30.6222C67.2372 31.0062 66.5412 31.1982 65.7492 31.1982C65.0172 31.1982 64.3632 31.0242 63.7872 30.6762C63.2232 30.3282 62.8452 29.8662 62.6532 29.2902H62.8692V34.8882H60.1512ZM64.9212 29.1462C65.5572 29.1462 66.0672 28.9242 66.4512 28.4802C66.8352 28.0362 67.0272 27.3522 67.0272 26.4282C67.0272 25.5042 66.8352 24.8262 66.4512 24.3942C66.0672 23.9622 65.5572 23.7462 64.9212 23.7462C64.2972 23.7462 63.7872 23.9622 63.3912 24.3942C63.0072 24.8262 62.8152 25.5042 62.8152 26.4282C62.8152 27.3522 63.0072 28.0362 63.3912 28.4802C63.7872 28.9242 64.2972 29.1462 64.9212 29.1462ZM74.8362 31.1982C73.6962 31.1982 72.8502 30.8862 72.2982 30.2622C71.7462 29.6262 71.4702 28.6662 71.4702 27.3822V21.8742H74.1882V27.3822C74.1882 27.9582 74.3022 28.3842 74.5302 28.6602C74.7702 28.9362 75.1362 29.0742 75.6282 29.0742C76.1682 29.0742 76.6122 28.8882 76.9602 28.5162C77.3202 28.1322 77.5002 27.6222 77.5002 26.9862V21.8742H80.2182V31.0002H77.5722V29.2542H77.8242C77.5482 29.8662 77.1522 30.3462 76.6362 30.6942C76.1322 31.0302 75.5322 31.1982 74.8362 31.1982ZM82.4578 31.0002V17.7522H85.1758V31.0002H82.4578ZM90.9433 31.1982C90.1513 31.1982 89.4553 31.0062 88.8553 30.6222C88.2553 30.2382 87.7873 29.6922 87.4513 28.9842C87.1153 28.2762 86.9473 27.4242 86.9473 26.4282C86.9473 25.4442 87.1153 24.5982 87.4513 23.8902C87.7873 23.1822 88.2553 22.6422 88.8553 22.2702C89.4553 21.8862 90.1513 21.6942 90.9433 21.6942C91.6753 21.6942 92.3293 21.8742 92.9053 22.2342C93.4933 22.5822 93.8773 23.0562 94.0573 23.6562H93.8593L94.0753 21.8742H96.6853C96.6493 22.2702 96.6133 22.6722 96.5773 23.0802C96.5533 23.4762 96.5413 23.8662 96.5413 24.2502V31.0002H93.8413L93.8233 29.2902H94.0393C93.8473 29.8662 93.4633 30.3282 92.8873 30.6762C92.3113 31.0242 91.6633 31.1982 90.9433 31.1982ZM91.7713 29.1462C92.3953 29.1462 92.8993 28.9242 93.2833 28.4802C93.6673 28.0362 93.8593 27.3522 93.8593 26.4282C93.8593 25.5042 93.6673 24.8262 93.2833 24.3942C92.8993 23.9622 92.3953 23.7462 91.7713 23.7462C91.1473 23.7462 90.6433 23.9622 90.2593 24.3942C89.8753 24.8262 89.6833 25.5042 89.6833 26.4282C89.6833 27.3522 89.8693 28.0362 90.2413 28.4802C90.6253 28.9242 91.1353 29.1462 91.7713 29.1462ZM98.7523 31.0002V24.2862C98.7523 23.8902 98.7403 23.4882 98.7163 23.0802C98.7043 22.6722 98.6743 22.2702 98.6263 21.8742H101.236L101.542 24.5382H101.128C101.248 23.8902 101.44 23.3562 101.704 22.9362C101.98 22.5162 102.316 22.2042 102.712 22.0002C103.12 21.7962 103.582 21.6942 104.098 21.6942C104.326 21.6942 104.506 21.7062 104.638 21.7302C104.77 21.7422 104.902 21.7722 105.034 21.8202L105.016 24.2142C104.764 24.1062 104.548 24.0402 104.368 24.0162C104.2 23.9802 103.984 23.9622 103.72 23.9622C103.216 23.9622 102.796 24.0582 102.46 24.2502C102.136 24.4422 101.89 24.7242 101.722 25.0962C101.566 25.4682 101.488 25.9182 101.488 26.4462V31.0002H98.7523Z" fill="white"/>
</g>
</svg>
