<svg width="26" height="22" viewBox="0 0 26 22" fill="none" xmlns="http://www.w3.org/2000/svg">
<path d="M25.5625 3.27467C24.613 3.68723 23.6084 3.95904 22.5804 4.0815C23.6607 3.44889 24.4732 2.44387 24.8654 1.25494C23.8439 1.85221 22.7283 2.27127 21.5663 2.4942C21.077 1.98137 20.4885 1.57341 19.8366 1.29509C19.1847 1.01678 18.483 0.873943 17.7742 0.875253C14.9044 0.875253 12.5819 3.16392 12.5819 5.98521C12.5799 6.37764 12.6249 6.76891 12.7159 7.15064C10.658 7.05417 8.64295 6.52921 6.7996 5.60935C4.95625 4.68949 3.3252 3.39498 2.0108 1.80865C1.54968 2.58602 1.30581 3.47297 1.30469 4.37681C1.30469 6.14869 2.22912 7.7149 3.625 8.63248C2.79798 8.61285 1.98791 8.39396 1.26355 7.99439V8.05767C1.26355 10.5362 3.05652 12.5981 5.42957 13.0674C4.98332 13.1864 4.52347 13.2467 4.06164 13.2467C3.73394 13.2473 3.40698 13.2155 3.08553 13.1518C3.74523 15.1821 5.66529 16.6586 7.93973 16.7008C6.09159 18.1252 3.82255 18.895 1.48926 18.8893C1.07509 18.8887 0.66131 18.864 0.25 18.8155C2.62367 20.3312 5.38287 21.1329 8.19918 21.1252C17.7631 21.1252 22.988 13.3364 22.988 6.58111C22.988 6.35963 22.9822 6.13814 22.9717 5.92193C23.9858 5.20056 24.8631 4.3041 25.5625 3.27467Z" fill="#D4D4D4"/>
</svg>
