<svg width="21" height="17" viewBox="0 0 21 17" fill="none" xmlns="http://www.w3.org/2000/svg">
<path d="M18.1414 4.53491C18.1414 4.73022 18.1414 4.88647 18.1414 5.08179C18.1414 10.5115 14.0398 16.7224 6.50076 16.7224C4.15701 16.7224 2.00857 16.0583 0.211697 14.8865C0.524197 14.9255 0.836697 14.9646 1.18826 14.9646C3.10232 14.9646 4.86013 14.3005 6.26638 13.2068C4.46951 13.1677 2.94607 11.9958 2.43826 10.3552C2.7117 10.3943 2.94607 10.4333 3.21951 10.4333C3.57107 10.4333 3.9617 10.3552 4.2742 10.2771C2.3992 9.88647 0.992947 8.24585 0.992947 6.25366V6.2146C1.53982 6.5271 2.20388 6.68335 2.86795 6.72241C1.73513 5.98022 1.03201 4.73022 1.03201 3.32397C1.03201 2.54272 1.22732 1.8396 1.57888 1.25366C3.61013 3.7146 6.65701 5.35522 10.0554 5.55054C9.97732 5.23804 9.93826 4.92554 9.93826 4.61304C9.93826 2.34741 11.7742 0.511475 14.0398 0.511475C15.2117 0.511475 16.2664 0.980225 17.0476 1.80054C17.9461 1.60522 18.8445 1.25366 19.6258 0.784912C19.3133 1.76147 18.6883 2.54272 17.8289 3.05054C18.6492 2.97241 19.4695 2.73804 20.1726 2.42554C19.6258 3.24585 18.9226 3.94897 18.1414 4.53491Z" fill="white"/>
</svg>
